# xmcd CD database file
#
# Track frame offsets:
#	150
#	16369
#	30827
#	45009
#	63248
#	82607
#	99765
#	116943
#	136514
#	153134
#	168569
#	182428
#
# Disc length: 2659 seconds
#
# Revision: 0
# Processed by: cddbd v1.5.2PL0 Copyright (c) Steve Scherf et al.
# Submitted via: CDex 1.51
#
DISCID=720a610c
DTITLE=Various Artist - Our Kind of Country
DYEAR=2011
DGENRE=Country
TTITLE0=Diamond Rio - One More Day
TTITLE1=Brad Paisley - I'm Gonna Miss Her
TTITLE2=Montgomery Gentry - If You Ever Stop Loving Me
TTITLE3=Martina McBride - This One's For The Girls
TTITLE4=Carrie Underwood - I Told You So
TTITLE5=Alan Jackson - Livin' On Love
TTITLE6=Blake Shelton - Austin
TTITLE7=Dierks Bentley - What Was I Thinkin' 
TTITLE8=Trace Adkins - Ladies Love Country Boys
TTITLE9=Terri Clark - I Just Wanna Be Mad
TTITLE10=Reba McEntire  - I'm A Survivor 
TTITLE11=Josh Turner  - Would You Go With Me
EXTD=YEAR: 2011
EXTT0=
EXTT1=
EXTT2=
EXTT3=
EXTT4=
EXTT5=
EXTT6=
EXTT7=
EXTT8=
EXTT9=
EXTT10=
EXTT11=
PLAYORDER=
